PathFileType	4	(X/Y/Z)	OpenSim_Sub03_CSBaseline_Accel.trc
DataRate	CameraRate	NumFrames	NumMarkers	Units	OrigDataRate	OrigDataStartFrame	OrigNumFrames
100	100	13	8	m	100	2323	9288
Frame#	Time	torso_imu_offset_imu	pelvis_imu_offset_imu	tibia_r_imu_offset_imu	femur_r_imu_offset_imu	tibia_l_imu_offset_imu	femur_l_imu_offset_imu	toes_r_imu_offset_imu	toes_l_imu_offset_imu
				X1	Y1	Z1	X2	Y2	Z2	X3	Y3	Z3	X4	Y4	Z4	X5	Y5	Z5	X6	Y6	Z6	X7	Y7	Z7	X8		Y8	Z8	

2323	23.22000000	12.28368673	1.62011300	5.80423191	12.30705149	-1.23553964	4.01575682	14.61337595	-4.23889738	0.97813328	10.55984912	-2.28826746	0.66427196	10.61695362	-5.85053687	-1.53213315	12.73576173	5.89700538	1.09318734	5.94666346	-4.24924626	7.20585404	6.96214473	-3.12620720	9.09523552
2324	23.23000000	11.38453588	1.80682666	5.55992060	12.08943306	-1.37362510	4.04578437	14.50088924	-4.66596174	1.88226814	9.74965974	-1.51233796	1.64533846	10.45825359	-5.19321788	0.60540864	10.34948703	4.25065045	-1.89940594	7.83518281	-4.74513480	7.68912002	8.56193132	-1.32421207	11.43793313
2325	23.24000000	10.12197222	1.91125271	5.33178227	11.57292396	-0.84208025	4.01117888	13.85924179	-4.71699965	2.04280750	9.60428863	-1.03301657	2.72369879	10.05256205	-4.56281193	-0.30055734	8.32491420	0.60769601	-3.59546598	10.40596410	-3.21398408	8.97865926	5.23871232	0.27116970	10.80891752
2326	23.25000000	9.11621062	1.97332091	5.02481915	10.69146410	0.18342548	4.15523042	13.44078131	-3.86350117	1.24043251	9.92776092	-0.25655988	3.36957020	7.88810362	-2.01073511	-1.59758096	7.90474543	-2.22521125	-3.55163538	13.29687980	-2.36207495	10.10502026	5.01187080	2.31119721	11.02447420
2327	23.26000000	8.58885749	1.95451261	4.69157993	9.70407523	1.14799259	4.17224807	13.29024249	-2.10137100	0.06700448	10.75128592	0.44114136	3.68393031	7.77143672	0.37006256	-3.32110064	7.53651643	-3.11885242	-2.43325053	14.32794903	-3.30474150	9.73914006	4.86788132	3.18016386	10.96932923
2328	23.27000000	8.22905009	1.84389073	4.37800646	8.63481531	1.80000340	4.01588110	12.93558549	-0.16687477	-0.91619749	11.22372198	1.11999902	3.28429421	8.67220215	1.79857710	-3.67862204	7.74232785	-2.85289018	-1.24759754	16.53393958	-2.15318675	8.17701298	5.33528048	3.23284945	10.53074593
2329	23.28000000	8.08218510	1.76315845	4.15369422	7.71432254	1.86770224	3.94812996	12.19699942	1.78349866	-1.90502778	11.70950106	1.62303327	2.40599972	8.76570251	2.79945410	-2.29065647	8.11578909	-1.81907735	-0.37784133	17.29678391	-1.06282902	6.63575822	6.10374950	2.41261662	10.35870800
2330	23.29000000	8.07716998	1.69898589	4.00894834	7.34216884	1.41219883	3.80971140	11.23553804	4.37115616	-2.06808428	12.16819994	1.92210074	1.56522979	9.44553670	2.47983659	-0.87152880	8.49674124	-0.36066268	0.01994716	15.27299230	-0.38409163	7.96787021	6.06486336	1.88382225	10.45234514
2331	23.30000000	8.21621887	1.67345026	4.03056938	7.41648605	0.57680647	3.56785592	10.38341149	6.99131090	-2.15428640	11.55826434	1.78212974	1.08747552	10.24119783	1.21248088	0.08989705	8.79807664	0.66347396	-0.95740104	12.77676604	-0.23932939	9.01184987	5.72809468	1.41407065	10.75858607
2332	23.31000000	8.33451902	1.64794426	4.08670096	7.98709663	-0.45194455	3.39242118	9.62311518	9.24868990	-2.50134935	12.01234553	1.07525180	1.21188265	9.89096684	0.04011683	-0.31895892	8.83493904	0.78226005	-3.05080808	15.25555345	-1.99713569	7.87723722	5.11793134	1.06898456	11.06428883
2333	23.32000000	8.46673510	1.66339793	4.21026831	8.71451725	-1.36709278	3.21410843	8.95476866	10.17477643	-2.82840285	12.63384846	-0.02403194	1.62874879	9.95717256	-0.27014250	-1.49286018	8.90250743	0.53820476	-4.55965512	12.94117563	-0.59490711	5.40189219	4.95128559	0.99541061	10.96733116
2334	23.33000000	8.67043227	1.70943657	4.38566375	9.39623084	-2.03925385	3.06185394	8.35795835	10.16679262	-2.92989614	12.65872314	-0.77215001	1.94578728	10.49678550	0.28003225	-1.73400546	9.17092724	0.73345888	-4.46517877	19.78191324	0.32233636	14.49744152	4.99146834	1.47549975	11.08735857
2335	23.34000000	8.83853860	1.79152856	4.44241518	10.07846714	-2.41700125	2.96028459	7.43659156	10.75581598	-2.67832098	11.73557964	-1.01296950	2.24648739	9.93410394	0.41964817	-1.53683527	9.52834482	1.28912314	-3.02246780	20.69662197	-7.29216606	17.24385531	5.10503564	1.60206024	11.11620449
